/* XPM */
static char *xpm_[] = {
/* columns rows colors chars-per-pixel */
"32 32 216 2 ",
"   c #0C021C",
".  c #13061E",
"X  c #1E071A",
"o  c #150B1D",
"O  c #1B0B1C",
"+  c #17191D",
"@  c #220C1A",
"#  c #29131D",
"$  c #152A0E",
"%  c #1C340E",
"&  c #1F3B0E",
"*  c #1A2A17",
"=  c #1E3412",
"-  c #1F3417",
";  c #223E0E",
":  c #212F14",
">  c #222D1C",
",  c #34231F",
"<  c #223D11",
"1  c #263A15",
"2  c #313E1C",
"3  c #0D0322",
"4  c #120A24",
"5  c #1C0D25",
"6  c #130728",
"7  c #1C0D2A",
"8  c #1A1624",
"9  c #1B1B24",
"0  c #1B132B",
"q  c #1E0D33",
"w  c #1C1332",
"e  c #220E28",
"r  c #23122B",
"t  c #271629",
"y  c #381C28",
"u  c #291A36",
"i  c #321B36",
"p  c #1A2324",
"a  c #2A232D",
"s  c #262829",
"d  c #38252B",
"f  c #283527",
"g  c #2C3C25",
"h  c #373B2B",
"j  c #262733",
"k  c #2B2433",
"l  c #382736",
"z  c #2C3236",
"x  c #353633",
"c  c #511D1C",
"v  c #462729",
"b  c #453F2E",
"n  c #5D372C",
"m  c #422B32",
"M  c #46283A",
"N  c #473733",
"B  c #593535",
"V  c #683133",
"C  c #623A37",
"Z  c #773837",
"A  c #24440E",
"S  c #264A0C",
"D  c #2A4D0E",
"F  c #2C530D",
"G  c #2F590C",
"H  c #33570F",
"J  c #325D0E",
"K  c #264311",
"L  c #2A4513",
"P  c #2B4B13",
"I  c #284816",
"U  c #2C451B",
"Y  c #334917",
"T  c #334D1A",
"R  c #2E5312",
"E  c #2F5810",
"W  c #335516",
"Q  c #355C11",
"!  c #36650D",
"~  c #396A0E",
"^  c #3F780E",
"/  c #356210",
"(  c #396512",
")  c #3B6B12",
"_  c #3C6819",
"`  c #3F7018",
"'  c #2E4C27",
"]  c #354322",
"[  c #3B4A29",
"{  c #3A5523",
"}  c #3E4C3A",
"|  c #44661C",
" . c #447715",
".. c #445825",
"X. c #484837",
"o. c #495734",
"O. c #555237",
"+. c #66433A",
"@. c #73443A",
"#. c #784A38",
"$. c #6C5637",
"%. c #7C503E",
"&. c #526A2B",
"*. c #5A6A38",
"=. c #62733D",
"-. c #331C46",
";. c #34174E",
":. c #38224D",
">. c #37334A",
",. c #532E49",
"<. c #4C3B47",
"1. c #563848",
"2. c #472952",
"3. c #452B52",
"4. c #592D57",
"5. c #5C3854",
"6. c #6A3754",
"7. c #573469",
"8. c #5B3468",
"9. c #6E3B72",
"0. c #464B45",
"q. c #5A4849",
"w. c #4C564B",
"e. c #5B5949",
"r. c #4B4754",
"t. c #5C4553",
"y. c #595557",
"u. c #664A45",
"i. c #7C4E42",
"p. c #63475B",
"a. c #685B58",
"s. c #76585A",
"d. c #586454",
"f. c #6E6951",
"g. c #686658",
"h. c #72486C",
"j. c #695963",
"k. c #775963",
"l. c #6F5072",
"z. c #6A6968",
"x. c #72696C",
"c. c #686373",
"v. c #776876",
"b. c #757877",
"n. c #812E1F",
"m. c #8F3C2E",
"M. c #884831",
"N. c #985035",
"B. c #A95A2A",
"V. c #A35B34",
"C. c #89653C",
"Z. c #B16338",
"A. c #C57B35",
"S. c #865546",
"D. c #835B59",
"F. c #A65C40",
"G. c #986549",
"H. c #836255",
"J. c #96675B",
"K. c #A56948",
"L. c #A7744D",
"P. c #B07B4C",
"I. c #B37A58",
"U. c #814E75",
"Y. c #855776",
"T. c #896A66",
"R. c #8B746F",
"E. c #97776B",
"W. c #876774",
"Q. c #916C7D",
"!. c #937979",
"~. c #A77C6A",
"^. c #C77D4E",
"/. c #4A8712",
"(. c #A8805F",
"). c #BA8663",
"_. c #B18C74",
"`. c #C88645",
"'. c #D29053",
"]. c #C18D6A",
"[. c #CA9871",
"{. c #C89779",
"}. c #D8A578",
"|. c #E4AE71",
" X c #875782",
".X c #965888",
"XX c #99678A",
"oX c #957188",
"OX c #A8679C",
"+X c #A4779B",
"@X c #AF62A6",
"#X c #B167A7",
"$X c #B977AD",
"%X c #C275B8",
"&X c #D676D5",
"*X c #8E898C",
"=X c #989B92",
"-X c #AB8E84",
";X c #AFAD9D",
":X c #A596A1",
">X c #AAA8A7",
",X c #B8B7A6",
"<X c #B9B8B4",
"1X c #D9AB8B",
"2X c #E3B48D",
"3X c #E3B999",
"4X c #C981BA",
"5X c #EDC294",
"6X c #C6C5AB",
"7X c #C8C9BE",
"8X c #D8D7B8",
"9X c #D285CD",
"0X c #D8D8C5",
"qX c #E4E2CB",
"wX c #EFF1D5",
"eX c #EFF1D7",
/* pixels */
"L A ; ; < < D D 2 x { G F F & I A F K S F D ' g _ ^ J ~ P < F R ",
"< % % ; < < L Q I b.w.F S S A ~ ! / J G G A z.g.Q ^ E E F A D K ",
"A % ; ; : 1 % < w.>X0.A S S S I ( ) F F ! A z.b.( ) ( S S S D ( ",
"G R G E 1 1 : 0.<Xb.1 % K K I I U _ E & I & d.<Xd._ ) < S Q /. .",
"( / ! Q D S 2 >X>Xp % h <.r.p >.f ' f p - K I b.<Xd.T R R J /. .",
"R Q / ) | D g.7Xv.l.j.U.u -.4 u w 9 4 9 f - A f 0X*Xg ( Q / / ~ ",
"; D E R R K *X0Xr.+X+XX.o       3 3   3 9 * & U 8X0X0.R D D F A ",
"A D R K A - b.qXz.f } r.o y X y d . 3   p I * z 0XeXd.F D D A D ",
"A G S A A < 0.0X0X=X;X*Xm i.+.S.i.y o r.=Xw.x *XeXeXd.& A S K K ",
"D G % A Y W.h.*X0X8X6Xj.@ n S.#.v X k ,X8X6X6X0XeX<X} & A S S S ",
"D A % A k..XX.h.z.z.y.9 r.M S.B x.3.u y.z.;X6X6X,X0.K A A A A S ",
"A A A *.XXR G W.l.& & - v.k.S.*X:X3.6   8.v.N h.t.& S & A ; & S ",
"J S R oXR.E ~ g.%XO.L * 0 H._.H.u.4   . 8.e.D v.#Xh : $ % & & ; ",
"G F R $Xg.G ) | f.p.a o p.3X5X5X3X1.3 . 6 s 1 X.&XU.h X.- % & & ",
"D S S T.oXI Q o.f 3.8.u 1.T.s._._.v . i 7.8.:.a @X$X9XXX[ & S S ",
"S A S X..X[ S P k 3.5.4.X # , @ @ @ y 6.4.4.3.-.4.9X4X*.g. X{ ! ",
"G I q.u.X.] T > M D.S.S.@.#.i.%.Z c Z.M.m.,.6.,.2.o.&.f.Q.&X.X..",
"G 1  Xo.F L X.d S.-X2X2X).G.].|.'.B.'.^.V.N.I.J.y ] ^ | | 2 p.s.",
"A 1 5.< X.h > C I.}.2X5X2X).2X5X|.'.A.n.N.Z.].^.M.b  .! G F [ s.",
"Q K I K q.9.m %.S.).}.).).K.).).`.'.`.N.V m.m.V.^.n q.=. .R ..&.",
"Q Y Y ! Y 5.B S.v %.).1X].L.[.2X].P.P.C @ i.V.V.`.G.b a.W.XX=.) ",
"E D (  . .s @.S.v y ~.}.K.K.[.J.D.J.J.y X M G.V.V.P.d D ..W.Q.W ",
"D D o.v.0.<.+.C t l -X_.~.(.E.k ,.9.4.e 5 e # y V.}.N = D g.s.A ",
"F E OXOXc.a.@ r.p.3.!.qX0X8XqX!.M 9.8.2.r e 7 d C T.k.r.y.#Xq.G ",
"J ..Y.u.m B v <.p.i l g.a.a.a.s.s.B :.M u 4 >.v.t O q.l.&XoX! ~ ",
"D W Y 2 l B %.n C m t s j z x h C.C.$.u.5 0 t q.q.T.H.,.#X%X=.H ",
"D [ ..L s @.@.# d m o * p j s z X.C.$.d 5 e l k.E.3X[.+.] OX@XU ",
"S o.e.L 2 d t 0 t t 5 o * + o o 9 d x 0 5 7 t d # E.3Xq.= .XU.P ",
"< < ] ! U u q 7 e e 0 o 9 + 8 5 8 j j 0 6 0 5 e 9 q.-Xx K s.o.S ",
"* % G { 3.;.;.q 0 s i u w . . u 0 9 0 3 q u q 0 I s g ! = U K = ",
"H ; D { >.:.i k -.d ] a 6 6 w j a a j 4 4 w -.h I P > ' I A J K ",
"! < 1 I U j f f Y T W p * j k p u a U * + 9 j ) ` ) U _ U P J _ "
};
