/* XPM */
static char *xpm_[] = {
/* columns rows colors chars-per-pixel */
"32 32 224 2 ",
"   c #0D021D",
".  c #18061C",
"X  c #160B1D",
"o  c #1B0C1C",
"O  c #17191D",
"+  c #220C1A",
"@  c #29131D",
"#  c #1A2B0F",
"$  c #1C330E",
"%  c #1E3B0D",
"&  c #1A2917",
"*  c #1E3412",
"=  c #1F3815",
"-  c #1E331B",
";  c #213E0E",
":  c #232D1B",
">  c #223C12",
",  c #2B3C12",
"<  c #243618",
"1  c #2D3C1C",
"2  c #323B1F",
"3  c #0D0221",
"4  c #0E0924",
"5  c #130625",
"6  c #120B23",
"7  c #1B0D25",
"8  c #1B0E2B",
"9  c #1B1525",
"0  c #1A1A23",
"q  c #191829",
"w  c #220E28",
"e  c #22122B",
"r  c #271729",
"t  c #371C29",
"y  c #291837",
"u  c #321B36",
"i  c #1D2526",
"p  c #262729",
"a  c #372629",
"s  c #2E3C25",
"d  c #273528",
"f  c #393A2C",
"g  c #272333",
"h  c #392839",
"j  c #2C3236",
"k  c #373835",
"l  c #511D1C",
"z  c #462729",
"x  c #53372C",
"c  c #412B31",
"v  c #452839",
"b  c #4C3237",
"n  c #583734",
"m  c #683133",
"M  c #623A36",
"N  c #773837",
"B  c #24440E",
"V  c #264A0C",
"C  c #2A4D0E",
"Z  c #2D530D",
"A  c #2F590C",
"S  c #33570F",
"D  c #335C0E",
"F  c #264412",
"G  c #2A4413",
"H  c #284617",
"J  c #2B4C13",
"K  c #2B441C",
"L  c #354C17",
"P  c #2E5213",
"I  c #2F5810",
"U  c #345B11",
"Y  c #375619",
"T  c #36640E",
"R  c #3B6A0D",
"E  c #3E740E",
"W  c #3F790E",
"Q  c #356211",
"!  c #396512",
"~  c #3B6B12",
"^  c #3B6A17",
"/  c #2D4725",
"(  c #35442A",
")  c #395423",
"_  c #3D4A38",
"`  c #426D17",
"'  c #437614",
"]  c #414A2B",
"[  c #435924",
"{  c #484836",
"}  c #524731",
"|  c #4E5A33",
" . c #545638",
".. c #66433A",
"X. c #73443A",
"o. c #784A38",
"O. c #6C5637",
"+. c #7C503E",
"@. c #466424",
"#. c #50662B",
"$. c #3A2747",
"%. c #38354A",
"&. c #432847",
"*. c #532E49",
"=. c #4A3C45",
"-. c #553946",
";. c #472951",
":. c #592D57",
">. c #5C3157",
",. c #67384A",
"<. c #683B5A",
"1. c #542F66",
"2. c #5C336A",
"3. c #5C3970",
"4. c #6A3E6A",
"5. c #494E4A",
"6. c #594749",
"7. c #4C554A",
"8. c #5B5443",
"9. c #5A5A4B",
"0. c #4B4754",
"q. c #5D4551",
"w. c #54415A",
"e. c #4D5850",
"r. c #585A58",
"t. c #664A47",
"y. c #7C4E42",
"u. c #7A4E4C",
"i. c #68584B",
"p. c #624A57",
"a. c #695A59",
"s. c #785A56",
"d. c #586454",
"f. c #63645D",
"g. c #717150",
"h. c #5B4E63",
"j. c #6F4862",
"k. c #77446F",
"l. c #675B62",
"z. c #775965",
"x. c #784978",
"c. c #6A6968",
"v. c #766869",
"b. c #726C7A",
"n. c #767878",
"m. c #812E1F",
"M. c #8F3C2E",
"N. c #884831",
"B. c #985035",
"V. c #A95A2A",
"C. c #A35B34",
"Z. c #89653C",
"A. c #B16338",
"S. c #C57B35",
"D. c #865545",
"F. c #A65C40",
"G. c #986549",
"H. c #8C7445",
"J. c #846256",
"K. c #96675B",
"L. c #A56948",
"P. c #A7744D",
"I. c #B07B4C",
"U. c #B37A58",
"Y. c #895D78",
"T. c #866A66",
"R. c #97776B",
"E. c #8A7174",
"W. c #937776",
"Q. c #A77C6A",
"!. c #C77D4E",
"~. c #4A8712",
"^. c #A8805F",
"/. c #B8845E",
"(. c #81817D",
"). c #BA8663",
"_. c #B18C74",
"`. c #C88645",
"'. c #D29053",
"]. c #C18D6A",
"[. c #C89779",
"{. c #D7A578",
"}. c #E4AE71",
"|. c #925488",
" X c #995996",
".X c #AB5B9D",
"XX c #946F87",
"oX c #B0639B",
"OX c #A77299",
"+X c #9C54A0",
"@X c #B369A8",
"#X c #B864B2",
"$X c #B976B2",
"%X c #C366BA",
"&X c #C47ABC",
"*X c #D077CC",
"=X c #D27BCB",
"-X c #7F8380",
";X c #8C8A89",
":X c #989C93",
">X c #AA8E82",
",X c #AFAC9E",
"<X c #A596A1",
"1X c #A9A8A6",
"2X c #B9B8A7",
"3X c #B9B8B4",
"4X c #D9AB8B",
"5X c #E3B48D",
"6X c #E3B999",
"7X c #C386BB",
"8X c #EDC294",
"9X c #C7C5AB",
"0X c #C6C6BD",
"qX c #D8D7B8",
"wX c #E1DBBA",
"eX c #D986D2",
"rX c #EC87EA",
"tX c #F58EF6",
"yX c #D7D8C3",
"uX c #D4D3C8",
"iX c #E5DFC9",
"pX c #E4E2CB",
"aX c #EFF1D5",
"sX c #EFF1D7",
/* pixels */
"G F B > ; F V C K k ) A Y 9.1 J > Z F V Z C ( ( Q ' T ! Z B C P ",
"B $ $ ; > > G U J n.e.8.#X=Xa.T ! T S D Z V c.f.D W P S C B C F ",
"B $ ; % # > $ > e.1Xh.q.z.*XE.V ^ ! Z Z T V c.c.Q ~ ! V V C V ! ",
"Z P A S , , : 5.3Xn.s % 8.=Xr.H H ^ I % H F d.3Xd.` ~ ; V U ~.' ",
"! Q T U C G 2 1X1Xq $ = h. Xi %.d / d i - B H n.3Xd.P Z P U ~.E ",
"P U Q ~ ~ J c.0Xr.H B F q y 4 y 8 q 6 q d = B s uX:Xd ! Q T Q ~ ",
"; Z I S Z > (.yXk Q J F q 3 3   3 3   6 q # = / qXuX5.Z C S Z G ",
", C C G V - n.sXc.d _ 0.X t o a a 5 3   i F # j uXsXr.Z C V B V ",
"B A J G B % _ 0XpX:X,X;Xc y...N.y.t . 0.:X7.j ;XsXaXd.% V V B F ",
"Z Z p.{ V C > -XyXqX9Xc.+ n D.o.x . g 2XqX9X2XiXaX2X_ % B V V B ",
"Z ; p..XY V B ( d.f.e.9 w.b u.n z.;.u r.c.,X9X9X2X5.F B B ; B V ",
"B B [ @Xv.J ! OXx.> B - b.s.J.W.<X;.5   k ] _ k ( < B % B B ; C ",
"A V V T.&X[ g.rXeX| F & e J._.J.q.7     $.Y V , G c j.b $ % % ; ",
"A Z V s.rXd.g.7X*Xk.i X p.6X8X8X4X6.3 3 8 g d , } |.#X#X<.q.6.1 ",
"C V V ] &X@XW.a.=.1.2.u -.T.s._.Q.v . u 1.3.$.e k.g.@.E.|.6.v.Y.",
"V V C B Y.tXrXa.q ;.>.*.o @ t + + + z ,.>.:.;.&.$.' E E G $ L v.",
"A B % B ] =XtXq.&.u.D.D.X.X.y.Z.N l L.B.N ,.<.:.&.Y ~ E Q ; 1 v.",
"A % # Z I z. Xb D.[.5X5X].G.].}.'.V.'.!.C.B.U.G.t s E ~ ! 1 6. .",
"B % # $ F = p M U.{.5X6X5XU.5X5X}.'.S.m.N.A.'.!.N.x E `  .8.{ C ",
"U , F F $ & a D.D.).{.].).L././.!.'.`.B.m M.M.B.!.x F @.oX .U T ",
"U L L ` 8.: x +.z +.).4X].P.{.5X].A.I.M + y.G.C.`.G.1 P OX@X@.` ",
"| Y.Y.g.E.d N D.z t Q.{.L.G.[.T.s.P.K.t . b P.B.C.I.a 8.=X%X[ Z ",
"XX$Xz.|.1.5...M t u >X_.^.^.R.h ;.k.>.w 7 w w l C.{.,.+XOX .C B ",
"XXOXJ K d.l.w -.p.&.;XpXyXwXpXE.&.4.2.;.w w 7 a M K.z.h./ C B S ",
"#.XXz.] a n z b p.u h f.a.a.a.s.u.*.$.v y X %.b.q o -.7.J ! D R ",
"C [ %X Xh n y.n M v r p j j j f Z.Z.O.t.7 9 r 6.6.R.J.a P ! ' P ",
"C V s. Xa t.X.@ a c X & p p i j } H.O.a 7 7 v z.R.6X[.-.( i.{ F ",
"G B > L 2 a r e r r 6 X & O X o 9 p k q 7 w r u @ R.6Xt.x.i.H G ",
"% $ F A G e y 7 w e 7 X 0 O 7 8 8 g g q 6 9 9 7 r q.>X_ _ S C C ",
"* * Z R Y f f 0 9 p u y 8 6 4 y 8 8 8 4 0 i 9 9 K 0.k I $ B B * ",
"S G J I / ( G K L L Y p 6 4 6 g p < / 4 4 q < P J L i ) H V D G ",
"Q > K V F < V 1 S S Y : & d H - V B I & O i H W E ! / ^ H J D ^ "
};
