/* XPM */
static char *xpm_[] = {
/* columns rows colors chars-per-pixel */
"32 32 180 2 ",
"   c #261D08",
".  c #39190C",
"X  c #17260F",
"o  c #192D0F",
"O  c #1C340F",
"+  c #1F3A0E",
"@  c #172910",
"#  c #1A2D10",
"$  c #1E3411",
"%  c #1F3910",
"&  c #2E230C",
"*  c #252B0C",
"=  c #38280A",
"-  c #3F2C0C",
";  c #23350F",
":  c #2F340B",
">  c #223D0E",
",  c #2A380E",
"<  c #34310C",
"1  c #3B340C",
"2  c #333D0A",
"3  c #3C3D0A",
"4  c #223410",
"5  c #293712",
"6  c #223B11",
"7  c #2A3B12",
"8  c #343C12",
"9  c #47340C",
"0  c #4A320D",
"q  c #433C0C",
"w  c #4C3B0D",
"e  c #543B0E",
"r  c #4B2B14",
"t  c #5A2D17",
"y  c #473611",
"u  c #4F391B",
"i  c #5F3616",
"p  c #513D18",
"a  c #7D3D20",
"s  c #663B30",
"d  c #24440E",
"f  c #2C440E",
"g  c #264A0D",
"h  c #2A4C0E",
"j  c #34460C",
"k  c #3D440C",
"l  c #334A0E",
"z  c #26500B",
"x  c #2C530D",
"c  c #2E590C",
"v  c #31550E",
"b  c #325C0E",
"n  c #254310",
"m  c #2A4411",
"M  c #274910",
"N  c #2B4B11",
"B  c #324612",
"V  c #3A4614",
"C  c #344C11",
"Z  c #3A4C13",
"A  c #2E5211",
"S  c #2F5810",
"D  c #315511",
"F  c #3B5312",
"G  c #335B11",
"H  c #375A12",
"J  c #3A5B12",
"K  c #3B591E",
"L  c #35630D",
"P  c #376C0C",
"I  c #3A6B0E",
"U  c #3D730D",
"Y  c #3E780D",
"T  c #346211",
"R  c #366210",
"E  c #386611",
"W  c #3A6512",
"Q  c #376A12",
"!  c #3A6A11",
"~  c #3C6B11",
"^  c #3E7210",
"/  c #41490F",
"(  c #44500C",
")  c #494310",
"_  c #584518",
"`  c #555912",
"'  c #6B430F",
"]  c #6F4310",
"[  c #635210",
"{  c #416F0E",
"}  c #41770F",
"|  c #416A15",
" . c #417412",
".. c #437A12",
"X. c #47771B",
"o. c #646218",
"O. c #4F5828",
"+. c #475A30",
"@. c #7B4226",
"#. c #7A452B",
"$. c #6A4333",
"%. c #5A6E22",
"&. c #5A7432",
"*. c #677029",
"=. c #747544",
"-. c #8A3B0B",
";. c #8F3E14",
":. c #824809",
">. c #914C0F",
",. c #895510",
"<. c #965014",
"1. c #A3570B",
"2. c #BA580D",
"3. c #A34E12",
"4. c #834527",
"5. c #904528",
"6. c #824A3E",
"7. c #A24F31",
"8. c #A15237",
"9. c #936A32",
"0. c #BD673D",
"q. c #C85F0A",
"w. c #D9590A",
"e. c #E75D0A",
"r. c #CE600E",
"t. c #DA6309",
"y. c #E76106",
"u. c #EB610A",
"i. c #E46516",
"p. c #EA661A",
"a. c #E56C19",
"s. c #DC6735",
"d. c #EA6D25",
"f. c #E66B28",
"g. c #E96C29",
"h. c #EA6C35",
"j. c #E87536",
"k. c #9B4C41",
"l. c #8A5943",
"z. c #AF584F",
"x. c #AA5E5F",
"c. c #A46742",
"v. c #BE6451",
"b. c #AC6562",
"n. c #B76767",
"m. c #C76D55",
"M. c #D6725A",
"N. c #EB7142",
"B. c #EF7847",
"V. c #EB7657",
"C. c #F17852",
"Z. c #CD7769",
"A. c #D57271",
"S. c #D27873",
"D. c #D97B74",
"F. c #EB7E63",
"G. c #E87B67",
"H. c #48840E",
"J. c #488511",
"K. c #5B811A",
"L. c #539612",
"P. c #6F9132",
"I. c #888F4F",
"U. c #979B5D",
"Y. c #92A554",
"T. c #A2AB59",
"R. c #969B77",
"E. c #B0BC7A",
"W. c #F08358",
"Q. c #EF8373",
"!. c #EE867E",
"~. c #F98376",
"^. c #F48878",
"/. c #F28481",
"(. c #F78A83",
"). c #C6C699",
"_. c #D8D29F",
"`. c #E9DFB0",
"'. c #E6E5C8",
"]. c #F9FBE4",
/* pixels */
"M 6 d 6 n 6 h h C v L c h c 6 g 6 A g g x h x { } } b P N 6 x A ",
"d O O > 6 6 g H b E v x g g g E E T L v x h x U { Y c b x n N n ",
"n O > + o 4 $ 6 n M 6 g g g n M ! E h c L c c L { I E h h h g ! ",
"v S c v 7 5 4 6 $ X 6 + > g N L x Y c g h d g H H ..! ; M G J...",
"! T L H C m 7 A $ X O % 6 n n T x Y x A % n h c H L.L N h L J. .",
"A H T ! ~ S 6 x 4 n d n O ; 6 g h h N D $ + d g b H.M E T J T ! ",
"> l S D A g d x x Q h h 6 4 n 6 g d H E ; $ 6 h x c g v N D x g ",
"n x x n g + n c L Y v v v 7 6 $ > h J H M M o g g x Q b h g g f ",
"d c g d d > z g h L c x m B 4 $ O b H J ! X.K f d > P M g g g d ",
"h c O d g h g + p ` f h 1 y 7 g j W | P.Y.E.).+.o > g d d g g d ",
"z > O d z g d , _ [ j q a 8.r _ V F } T.`.'.].R.o + g d d d d g ",
"g g g c L N c A 8 ) 0 a m.D.n.M.7.@.` K.I.)._.=.; + g % d > ; h ",
"c g x c P H P A T k p l.!.S.b.G.V.F.m.o.J %.*.V 8 4 $ @ O + + d ",
"c x g c G c P T  .u $.s n.A.6.v.F.D.Z.9./ &.U.V B m ; 6 o O + O ",
"h g g d d g c M 6 8 #.m.A.!.M.G./.n.x.c.w O.=.Z Z | G U + + h g ",
"g g h d > > g z h , 4.C.~.^.(.(./.z.k.0.] < , m m | Y Y g O g L ",
"b d + g d + d f > & 8.W.N.F.F.Q.^.V.s.j.,.1 g f m ^ I U T 6 6 v ",
"c + o h x d d M & . 5.j.g.N.h.h.C.B.g.a.<.- d g H U ^ ! E 6 > h ",
"d O # O d % 6 B = t @.t.d.d.g.g.f.f.a.i.3.- g d G U H.P T N n h ",
"H , M n O @ 4 V r 4.4.1.y.u.p.d.d.i.e.w.-.: c b A E G L  .D G E ",
"H B C E n 7 7 F ( 1 j 9 3.e.e.y.y.y.r.>.0 h P ..E ! A c ~ D E ~ ",
"S x E .. .5 5 Z l > L h w ;.2.q.r.2.:.i 9 b b P ~ A 6 A J A G D ",
"h h M ~  .D 4 6 ; > U g , i t [ ' e <   9 3 j c T A % > x N N n ",
"v b h N  .Q 4 x + g H.c x 1 w q j j &   : q q j b Q 4 d b N n G ",
"L x g m v ..h x z g ..M h ! j 2 N j 1 * ; l ( 3 I M % c x T T ! ",
"x h f Z j N g M P h c N H ~ T z x v b b M b P H H 4 6 g c L U A ",
"N g m v m 5 6 O h G G b G M N T b g v E n M A N M n % G ! H N d ",
"M d d h B B B 4 g f h b c h m D x f M  .6 h N c n 6 % 6 m N n N ",
"; O f b C Z Z 4 ; d ; d g d 6 h g 6 A H % A H N x b M $ 6 G N N ",
"$ ; x P F F Z 5 h h x 7 4 $ 6 + % n H g $ % g g h 6 $ G $ d n $ ",
"v m x c v m B C b l J Z > d x x % n L g o g d c N C 6  .N g T n ",
"T > g z g ; N M v J F v c c c d M n c > O d v Y  .T h ^ S h G E "
};
