/* XPM */
static char *grass_11737015512[] = {
/* columns rows colors chars-per-pixel */
"32 32 64 1 ",
"  c #17260F",
". c #1A2D0F",
"X c #1C340E",
"o c #1F3A0E",
"O c #1A2D10",
"+ c #1E3410",
"@ c #1F3910",
"# c #22350F",
"$ c #223D0E",
"% c #202F11",
"& c #233511",
"* c #293712",
"= c #223C11",
"- c #2A3B11",
"; c #323713",
": c #313F14",
"> c #24440E",
", c #29440F",
"< c #26490D",
"1 c #2A4C0E",
"2 c #354F0F",
"3 c #27500B",
"4 c #2C530D",
"5 c #2E590C",
"6 c #31550E",
"7 c #325C0E",
"8 c #385D0F",
"9 c #254311",
"0 c #2A4411",
"q c #264A10",
"w c #2B4C11",
"e c #324512",
"r c #394713",
"t c #334C11",
"y c #3A4D13",
"u c #2E5211",
"i c #2F5810",
"p c #325511",
"a c #3A5312",
"s c #345B11",
"d c #3A5C12",
"f c #35630D",
"g c #3A630E",
"h c #376C0C",
"j c #3B6B0E",
"k c #3C730D",
"l c #3E780D",
"z c #356211",
"x c #3A6512",
"c c #376A12",
"v c #3B6B11",
"b c #3E7311",
"n c #41740F",
"m c #437D0F",
"M c #426017",
"N c #416A15",
"B c #417412",
"V c #437A13",
"C c #44810F",
"Z c #4B880C",
"A c #458210",
"S c #488413",
"D c #4B8C11",
"F c #539612",
/* pixels */
"q=>==9<2t6f715@<=4>1414nnnfg1=1u",
">XX===>sfg4111>vvz75544knlp74qqq",
"9X$o.&+@=q9>>11qcf14f45gnjx<11qx",
"6i55-*&=@ @o$>q76l511>>78Bv#1sSV",
"xzfstq-4X X==99f5ki4==17pFf41sDB",
"pszvcp=u==>9+o9>11qp@=>17Zqxz7fv",
"$2ipu1>54c11@&9=>>sd#+=115>p16p>",
">11>1o=5zl562-&@><xdqqO>14j71<,<",
">5<>>>3<3f54,e&#X76dvb1>>>h<<<>>",
"15X><3>>1lq12y#w2NNnvx1o.o1>><<>",
"3>X>3<o1<v11pa,B6djjpu5&.o>>>>>1",
"><<5fw5i=q1>7a9V74nVsu>-&o1+o>o1",
"5<15j7cufz><qtsjs<7Ds7<-:*+OXoo>",
"5414s5h5bq9$9xv747jAs1$ee0X#.XXo",
"13>>>>51=q&#=wq>qvxs4>XeyNsboo3<",
"<<3>>><3q<#0&&>>6V8p2<$-0Bkl1X<f",
"7>#<>o>>#.*ee*@<7xg644><0Bvkz==5",
"5oO<5>>9##eae->4<q6s>><>7nkjx=$1",
">oOX>X=ee#=Ndpb9$<>===<>7kmjzw91",
"s#9qXO*r;-wbMdbp9==..$5spxsfBpsx",
"dtyxq*-aa1f1sv7bpew#11clxvu4vpxv",
"51xVb**y2$f1w31ipzksq5fhvu=udupp",
"41qxVp&=#>k<11upBvjq>114fu=$4wqq",
"471wNv&4o<C64173zp6>>4147c+>7w9s",
"75<e6n141>mq<ci1qpe$$uk7N<@54zzv",
"u1,ye111j15udvz3u5f7q7jfs@@15flu",
"1<06--&X4s77pq0z51pb=0pw9$=pvdq=",
"q9>1eet@,<<7740p41wB=11699@=0wqq",
"##>7tya%$$#>1$=11=wp@usw17q@=uqw",
"X#4hayr-1,6-+@=oXqs1+o<<4=+sO1q&",
"6<4769etf2da$>34@9f1+<>5ww&Bq1sq",
"z$<<1#ww6aa64559195$.>6kBx1bi1sx"
};
