/* XPM */
static char *xpm_[] = {
/* columns rows colors chars-per-pixel */
"32 32 233 2 ",
"   c #0B0A0B",
".  c #190903",
"X  c #191819",
"o  c #290F05",
"O  c #350E05",
"+  c #251709",
"@  c #341508",
"#  c #331A0A",
"$  c #3C1C0B",
"%  c #261B18",
"&  c #341A10",
"*  c #1D250B",
"=  c #1D330F",
"-  c #1D380F",
";  c #1D2F10",
":  c #1D3311",
">  c #292807",
",  c #252409",
"<  c #2D240A",
"1  c #242D0B",
"2  c #292B0A",
"3  c #38270B",
"4  c #332A0C",
"5  c #2C3807",
"6  c #23320C",
"7  c #2B330B",
"8  c #243C0D",
"9  c #2D3D0A",
"0  c #373509",
"q  c #35320C",
"w  c #323C0C",
"e  c #2A2B18",
"r  c #342C13",
"t  c #382818",
"y  c #223410",
"u  c #2B3710",
"i  c #223D10",
"p  c #373514",
"a  c #3C3412",
"s  c #2A2826",
"d  c #3F2621",
"f  c #2B3326",
"g  c #32332A",
"h  c #363736",
"j  c #471809",
"k  c #421D0B",
"l  c #4C1E0E",
"z  c #46240C",
"x  c #57250A",
"c  c #46380C",
"v  c #533309",
"b  c #482814",
"n  c #552516",
"m  c #502D14",
"M  c #4B3717",
"N  c #553415",
"B  c #583919",
"V  c #652607",
"C  c #673C18",
"Z  c #733112",
"A  c #493623",
"S  c #5B3D25",
"D  c #493B35",
"F  c #553F37",
"G  c #174614",
"H  c #2C4207",
"J  c #25440E",
"K  c #2C450B",
"L  c #26490D",
"P  c #2A4C0E",
"I  c #34430D",
"U  c #37490C",
"Y  c #2D520D",
"T  c #2F580C",
"R  c #31540E",
"E  c #335C0E",
"W  c #3A5B0D",
"Q  c #254311",
"!  c #284511",
"~  c #2B4B10",
"^  c #344C10",
"/  c #2F5311",
"(  c #345711",
")  c #345B11",
"_  c #36620E",
"`  c #3B640C",
"'  c #3B6B0E",
"]  c #3F770F",
"[  c #356311",
"{  c #396512",
"}  c #3B6A11",
"|  c #3E7311",
" . c #254526",
".. c #364432",
"X. c #47420F",
"o. c #484616",
"O. c #5B4219",
"+. c #5B5615",
"@. c #62520F",
"#. c #6A481C",
"$. c #78481A",
"%. c #4B7E0B",
"&. c #586514",
"*. c #417412",
"=. c #437A12",
"-. c #4A4229",
";. c #574729",
":. c #5A452C",
">. c #585827",
",. c #4A463D",
"<. c #58453A",
"1. c #6B4A23",
"2. c #69472A",
"3. c #754C27",
"4. c #74572B",
"5. c #664934",
"6. c #675839",
"7. c #775839",
"8. c #756C34",
"9. c #3B3F43",
"0. c #444144",
"q. c #494849",
"w. c #554C46",
"e. c #58544B",
"r. c #4B4F52",
"t. c #504D50",
"y. c #545A56",
"u. c #575A56",
"i. c #675943",
"p. c #745A45",
"a. c #655C56",
"s. c #5B6058",
"d. c #6A6348",
"f. c #786545",
"g. c #6B635A",
"h. c #796757",
"j. c #5C5E63",
"k. c #596D63",
"l. c #686766",
"z. c #726B66",
"x. c #6B726D",
"c. c #797162",
"v. c #737472",
"b. c #7C7B76",
"n. c #8A3411",
"m. c #89490D",
"M. c #8B5119",
"N. c #B24F17",
"B. c #9C6419",
"V. c #A26514",
"C. c #894528",
"Z. c #875326",
"A. c #A24D24",
"S. c #99672B",
"D. c #8B633C",
"F. c #AA6C2B",
"G. c #C07028",
"H. c #856949",
"J. c #996C49",
"K. c #86724E",
"L. c #9B7C46",
"P. c #887458",
"I. c #987856",
"U. c #A37645",
"Y. c #816C63",
"T. c #877968",
"R. c #977C6C",
"E. c #887A74",
"W. c #4A8712",
"Q. c #539612",
"!. c #7D8444",
"~. c #6F8870",
"^. c #8B883F",
"/. c #9A8B39",
"(. c #BB8035",
"). c #938E4D",
"_. c #938756",
"`. c #A89547",
"'. c #B8924C",
"]. c #B4AA5E",
"[. c #888669",
"{. c #938769",
"}. c #878379",
"|. c #948676",
" X c #9E9675",
".X c #A7886C",
"XX c #A69869",
"oX c #A28579",
"OX c #A5947C",
"+X c #B39A74",
"@X c #B1A86E",
"#X c #CF9549",
"$X c #C3A241",
"%X c #C9A74D",
"&X c #CABA48",
"*X c #C2B458",
"=X c #C6BF70",
"-X c #CDC36A",
";X c #D6CF70",
":X c #799487",
">X c #898986",
",X c #9A8D84",
"<X c #87938E",
"1X c #98948A",
"2X c #929092",
"3X c #999797",
"4X c #A8998C",
"5X c #B19784",
"6X c #A39C98",
"7X c #B5AA96",
"8X c #B8AB94",
"9X c #9E9DA2",
"0X c #A5A2A2",
"qX c #A9A8A5",
"wX c #A9B1A8",
"eX c #B6B3AE",
"rX c #ACABB0",
"tX c #B8B7B6",
"yX c #C5BC95",
"uX c #C5B9AF",
"iX c #DDE38D",
"pX c #D3C4A8",
"aX c #C6C4BE",
"sX c #DAC8B0",
"dX c #E3D4B1",
"fX c #ADCFC1",
"gX c #CBC8C5",
"hX c #D2CECF",
"jX c #D6D4CB",
"kX c #DAD9D7",
"lX c #E8E5DC",
"zX c #F2ECE9",
"xX c #F0F0F0",
/* pixels */
"! Q Q J - i L ^ ^ R _ E P Y - ~ i Y ! L Y P Y *.*.%.[ ' P i Y / ",
"8 = - - i Q Q ) E ` Y Y P L J { } E K L 5 5 Y ' | *.Y ) Y Q ~ Q ",
"Q : 6 , y 6 : - J L 5 5 5 J L ~ ' U # F F $ w _ | ' _ L L L L } ",
"Y I 2.2.r u y Q 6 * O.8.#.7 ~ W 0 4 t z.z.l 5 E W *.} 8 L ( W.=.",
") c I.K.& + 2 2 -.f.].;X*X4.a c N B b t % # I Y ( Q.[ Y / ) W.] ",
"/ I 5.w.a.E.E.Y.h. X;X).*X*Xz O N B N t @ # 3 < 0 %.J [ [ ) [ } ",
"i ^ 6.7XlXxXhXz.i.d.6.f.%XJ.M.M.#.2.S M N N m z @ P L ( ~ R Y J ",
"i p 4XlXxXxXeXX e.u.  n C.A.#X#X(.#XI.f.].].`.;.0 P _ R P P J L ",
"J + e.6X2XlXkX>X1Xg.. x n.N.F.F.B.2.P.{.XXiX).q 8 8 0 3 4 P J Q ",
"L 2 l.x.3XhXeX>XwXd.5.'.#X%X$X$X'.L.@XeX~._.;.* = 2 k 5.A 2 H J ",
"P , D 2Xl.e.l.2Xl.p.yXK.;.^.>.>.].=XXXd._.d.w 6 , $ M t t o > ~ ",
"J 6 t R.E.z.b.z.g e.8Xz.e.7Xl.}. Xd._.-X-X4., 0 # O @ & M 3 < L ",
"R L K a M e s u.b.,.g v.j.3XaX3Xb.|.XX-X&X4.@ j b c p b @ < 6 J ",
"E Y L P R 8 D 6X9X0.s u.y.j.y...v.t.r.8./.$.z B X.o.c V j : - = ",
"P L L J J 6 <.aXrX9.  u.9.s.f f e.~. Xd./.$.l o.o.&.+.Z j - L P ",
"L L L H 2 r c.zXgX0.0.v.x.v.b.6XT.,.~.).&XC.x o.X.&.&.C j 6 L _ ",
"T J , d Y.E.6XxXgXt.:XrXtX0XhXtX3Xb.c.).).O.$.+.o.@.@.@.V 4 8 T ",
"T 6 & h.z.b.aXxXkX>Xu.h t.g l.3XrX2Xb.e.d.^ !.8.w z v +.V o 8 Y ",
"Q - @ F X X r.u.3XaXu.u.3X6XqXrXu.j.}.e e e ~.~.u 6 7 1 + . , Y ",
") u A T.g r.9.  s 2X6Xu.2XaXgXlXtX2Xq.+ p f ~.fXk. .G G - + 7 _ ",
"W r 4XuXD j.t.s h z.kXl.s F >XkXgXkXeXa.F A 3XwX<X~. .L 8 , W { ",
"Y r 4XOX% X s h h X 2XhXg.,.>XtXe.6XeXD ;.i.9X>X0X<Xv. .1 2 ) ( ",
"J 3 H.h.F w.>XY.t.X 0.tXhXE.6X,Xb F qXT.:.8XhXgXqXq.E.l.A w ~ J ",
"/ 0 :.p.,X6X6X9X3Xv.r.l.3X9X,Xw.5.S E.,X:.|.h.|.4Xl.>Xg.w.< Q ( ",
"E K a |.e.D g.q.s b.eXl.h D F p.J.K.7X8Xi.n S p.5X,X}.E.D 4 W } ",
"Y P r 5.K.P.pXqX,.g.{.[.T.P.I.U.I.+XsXOXP.H.H.H.oXp.A d.p.a ' / ",
"Y L 9 3 H.J.+XjXc.<.L.L.F.).U.U.D.I..XH.H.Y.R.,XR.D.#.A A I ~ Q ",
"J J i a C F.F.pX8X7.Z.B.S.B.B.Z.m N 3.3.3.7.H.J.J.J.D.2.3 ~ ! Q ",
"8 - J U x m.m..XdXR.$.V.V.V.m.$.N B C z z b C $.3.Z.7.m 2 Y / ~ ",
"; = Y ` c x x 1. XuX6.#.M.Z.m.$.1.1.C n b m C z $ k $ ^ = J ! : ",
"R J Y T R 7 4 @ d <.t @ # k l k k $ z $ $ $ k o o 2 6 | ! ! E ! ",
"_ J L P L - P 5 9 9 w 5 9 K 9 1 8 2 K y * 7 K W W _ / | T Y ) { "
};
