/* XPM */
static char *xpm_[] = {
/* columns rows colors chars-per-pixel */
"32 32 185 2 ",
"   c #0C0608",
".  c #180B0B",
"X  c #0C120C",
"o  c #12120C",
"O  c #0C0F12",
"+  c #141314",
"@  c #1B1213",
"#  c #1A1E13",
"$  c #1C1818",
"%  c #28140F",
"&  c #231A0B",
"*  c #241C16",
"=  c #2C1D14",
"-  c #351B16",
";  c #17260F",
":  c #1B2B0F",
">  c #1C340E",
",  c #1F3A0E",
"<  c #152311",
"1  c #172911",
"2  c #1C2D11",
"3  c #1D3411",
"4  c #1F3910",
"5  c #23370F",
"6  c #223D0E",
"7  c #2C2115",
"8  c #2E241B",
"9  c #262918",
"0  c #342413",
"q  c #392519",
"w  c #233511",
"e  c #293712",
"r  c #223B11",
"t  c #2A3B12",
"y  c #273719",
"u  c #333914",
"i  c #09182F",
"p  c #141624",
"a  c #351B35",
"s  c #392C29",
"d  c #2E342B",
"f  c #511416",
"g  c #44241D",
"h  c #522119",
"j  c #592A26",
"k  c #473B25",
"l  c #4A3825",
"z  c #5E3120",
"x  c #4F3230",
"c  c #6A3024",
"v  c #613F35",
"b  c #24440E",
"n  c #28470F",
"m  c #264A0D",
"M  c #2A4C0E",
"N  c #2C530D",
"B  c #2E590C",
"V  c #31550E",
"C  c #325C0E",
"Z  c #254311",
"A  c #294411",
"S  c #264A10",
"D  c #2B4C11",
"F  c #324512",
"G  c #394713",
"H  c #344C11",
"J  c #3A4D13",
"K  c #2E5211",
"L  c #2F5810",
"P  c #315512",
"I  c #3B5212",
"U  c #335B11",
"Y  c #3A5A12",
"T  c #38511C",
"R  c #3A5A19",
"E  c #35630D",
"W  c #386A0D",
"Q  c #3B6B0E",
"!  c #3C730D",
"~  c #3E780D",
"^  c #366210",
"/  c #356312",
"(  c #3A6612",
")  c #376A12",
"_  c #3A6A11",
"`  c #3C6B11",
"'  c #3F671D",
"]  c #3E7311",
"[  c #427B0F",
"{  c #417412",
"}  c #437A12",
"|  c #4D432C",
" . c #54472F",
".. c #56512D",
"X. c #49413A",
"o. c #51413F",
"O. c #5B543D",
"+. c #7A4424",
"@. c #6E562A",
"#. c #4A6E27",
"$. c #103250",
"%. c #2B3948",
"&. c #0F3960",
"*. c #113A64",
"=. c #3F4B55",
"-. c #2C5F7C",
";. c #49514D",
":. c #614D44",
">. c #6E4E4D",
",. c #756753",
"<. c #435E75",
"1. c #645E60",
"2. c #7C7978",
"3. c #8B232C",
"4. c #8D2D33",
"5. c #A1282F",
"6. c #A93D3D",
"7. c #B73439",
"8. c #8E5927",
"9. c #8E4C30",
"0. c #B74F3B",
"q. c #9B6430",
"w. c #AD6736",
"e. c #BF7F3D",
"r. c #DF6C29",
"t. c #DC6939",
"y. c #DD7B36",
"u. c #E1752C",
"i. c #E17630",
"p. c #E37934",
"a. c #E37938",
"s. c #994540",
"d. c #A14E43",
"f. c #85665E",
"g. c #906455",
"h. c #AF6D59",
"j. c #8C7569",
"k. c #927B69",
"l. c #D26C53",
"z. c #C57955",
"x. c #D47865",
"c. c #48840E",
"v. c #4A8712",
"b. c #539612",
"n. c #DC972A",
"m. c #D59531",
"M. c #E49A35",
"N. c #C6A03E",
"B. c #DAA33E",
"V. c #F2A12D",
"C. c #F0AE34",
"Z. c #F6BF34",
"A. c #F9BD39",
"S. c #FEC32F",
"D. c #F6C437",
"F. c #FEC632",
"G. c #BC9444",
"H. c #BE9649",
"J. c #BB994B",
"K. c #BC9551",
"L. c #A3836E",
"P. c #AF8970",
"I. c #C59B46",
"U. c #C09549",
"Y. c #C99F51",
"T. c #DDAE47",
"R. c #C9A655",
"E. c #F0AD5E",
"W. c #E39F66",
"Q. c #EFAA69",
"!. c #F1B465",
"~. c #EDAC7B",
"^. c #818383",
"/. c #899085",
"(. c #BC9980",
"). c #A2A693",
"_. c #E29580",
"`. c #CDA080",
"'. c #DFB295",
"]. c #E3B28C",
"[. c #C9BFB3",
"{. c #F0C6A7",
"}. c #F4D6B7",
"|. c #CECAC6",
" X c #F1DCC3",
/* pixels */
"A Z Z 6 r Z m M H V E C M N r m r N S A N M N { { [ E Q M 6 M P ",
"b > , 6 r r A U C ( V M m m b W _ / C B N N N { { ! V V N m M b ",
"b 3 6 , : 5 > r b S Z b m m m D ( W M B E B B / { W Y m m m A _ ",
"K N B V t e w r 3 1 4 , b b D C N ~ C m m b m U V [ Q 6 m U v.} ",
"( / W C H A A M 3 ; > 4 r Z Z W N ~ K D 4 Z M B P b./ N K C v.} ",
"K Y U ` ) P r N w Z b Z 3 3 2 6 6 6 4 Z 4 4 m m C c.b ` / C / ` ",
"6 H L P K m b N M ) M D y 8 7 7 7 = = = y 3 4 m N C b V M V H b ",
"b N M S m 6 b V ) ! B A k R.T.T.T.B.m.m.q y 3 b m N W C M M A m ",
"b B m b b , N N N W b ..Y.D.S.F.S.F.C.V.m.k 3 m b 6 W m m m b b ",
"m B > b m m m , m m X z y.i.u.i.y.u.r.r.t.h X 1 1 b m b b m m b ",
"M b > b N m 6 S r ..@.q.y.i.p.p.i.p.y.a.t.q.@.| ; , b b b b b m ",
"m m m B E D B T k N.Z.B.G.G.J.I.U.H.H.H.G.T.A.G.l y b , b 6 b m ",
"B m N B W C U 8 R.Z.n.8.q & & 0 0 & & & % 8.n.S.J.* 2 1 > , , b ",
"B N m B C V B 9 Y.M.+.v j.% @ f.:.+ + o + % 9.M.K.* 2 6 1 > > , ",
"m m m b b m N Z l w.c % o.2.9 s 1.1.@ + O   +.w.l R U W , , m m ",
"m m M b b b m M w l =   x |./.s ^.[.,.$ +   - l y { [ ! m > m W ",
"V b , m b , b m w 1 O 8 k.}.}.k.'. X(.p O # < 3 S ] Q ! / r r N ",
"B , : m N b b A e y 3 x P.].].].'.W.g.=   3 m b N ] ! Q ( r r N ",
"m , : > b > w J F 5 t u c h.z.z.z.s.f 4.f 4 m b P ! c.( U K Z M ",
"U r D b > 1 w G u t w g d.~.W.~.x.7.5.7.6.g b U P ` U W } P U E ",
"U H H ( A t t I I :  .9.0.Q.E.!.l.3.c x._.x Z } ( _ P N ` P ( ( ",
"V H / } } w e J H X >.h.j ,.,.,.>.a s '.{.o.4 ) ` K r K R K V U ",
"D N D _ } P w t w 2 O. .p *.$.i &.*.%.j.j.d A K E K 4 6 N D M b ",
"V V m M ` ) r D e A Y . i -.i p $.-.<.O + t T L V ) 3 b C D Z U ",
"C N m F B [ m N N b c.r d ).d ;.%.;./.# y D ! C { m 4 N N / U Q ",
"N N A H F m b D W M N D ' #.R D D P ' U m E W E U w 4 M B W ! K ",
"M b D V t e 5 > N V V C L A S / U M B ] Z A P D m b 3 U ` U D Z ",
"S Z 6 H F J H 5 m A m C C m A U N m D ] r M M P r Z 4 r A D S A ",
"6 5 6 C H J J w w 6 6 m b 6 r m m r K U r P U N N C S 3 r K K D ",
": 5 V W I I J e N m H e w 3 6 6 , A U b 3 > m b N r 3 U 3 b S 3 ",
"V A N B V A A H E H Y J b b B N 3 S W b > m b N D D w { S m C A ",
"E 6 m M m 5 D M V Y I V N C B Z b b B Z 2 b C ! { ( N ] K N U ( "
};
