/* XPM */
static char *xpm_[] = {
/* columns rows colors chars-per-pixel */
"32 32 184 2 ",
"   c #0B0507",
".  c #0B0D0B",
"X  c #180A0B",
"o  c #0E130D",
"O  c #1D140A",
"+  c #161A0D",
"@  c #141213",
"#  c #181515",
"$  c #121A12",
"%  c #23150B",
"&  c #271917",
"*  c #17240D",
"=  c #192C0F",
"-  c #1C340F",
";  c #1F3B0E",
":  c #1C2414",
">  c #172910",
",  c #1B2C11",
"<  c #1E3411",
"1  c #1F3910",
"2  c #23350F",
"3  c #223D0E",
"4  c #292517",
"5  c #232D13",
"6  c #2A231A",
"7  c #3A2517",
"8  c #3A291A",
"9  c #223511",
"0  c #293712",
"q  c #223B11",
"w  c #2A3B12",
"e  c #29351B",
"r  c #333814",
"t  c #08182D",
"y  c #161825",
"u  c #351E39",
"i  c #2A2C27",
"p  c #322422",
"a  c #2F332A",
"s  c #491B1E",
"d  c #551417",
"f  c #5C291C",
"g  c #4A2121",
"h  c #552724",
"j  c #433521",
"k  c #4C3421",
"l  c #443A2C",
"z  c #473D3B",
"x  c #503A30",
"c  c #5A3C35",
"v  c #652221",
"b  c #6C3D23",
"n  c #24440E",
"m  c #28470F",
"M  c #26490D",
"N  c #2A4C0E",
"B  c #2C530D",
"V  c #2F590C",
"C  c #31550E",
"Z  c #325C0E",
"A  c #254311",
"S  c #2A4412",
"D  c #2A4716",
"F  c #2B4B11",
"G  c #324512",
"H  c #344C11",
"J  c #3A4D13",
"K  c #384718",
"L  c #2E5211",
"P  c #2F5810",
"I  c #315412",
"U  c #3B5312",
"Y  c #345B11",
"T  c #3A5C13",
"R  c #35630D",
"E  c #39650E",
"W  c #366C0D",
"Q  c #3B6B0E",
"!  c #3C730E",
"~  c #3E780D",
"^  c #366210",
"/  c #346312",
"(  c #386511",
")  c #3A6612",
"_  c #376A12",
"`  c #3A6A11",
"'  c #3C6B12",
"]  c #3D7311",
"[  c #427B0F",
"{  c #426A1A",
"}  c #417412",
"|  c #437A12",
" . c #56492D",
".. c #4F5037",
"X. c #7B4622",
"o. c #605631",
"O. c #466B24",
"+. c #7F642E",
"@. c #0A2E4F",
"#. c #1C3750",
"$. c #2B3A49",
"%. c #0F3A62",
"&. c #113E68",
"*. c #3D4953",
"=. c #2B5D79",
"-. c #444F46",
";. c #5B4A4C",
":. c #6C584D",
">. c #775146",
",. c #685F5F",
"<. c #6C6553",
"1. c #4A657D",
"2. c #6F696B",
"3. c #7C7E7E",
"4. c #8B242D",
"5. c #912D34",
"6. c #A22830",
"7. c #B83439",
"8. c #915133",
"9. c #B3463C",
"0. c #80642F",
"q. c #AA6637",
"w. c #A97135",
"e. c #DC6628",
"r. c #DD6D2D",
"t. c #DC6934",
"y. c #D7733A",
"u. c #9C4842",
"i. c #A14C42",
"p. c #896459",
"a. c #AF6E5A",
"s. c #867568",
"d. c #937866",
"f. c #C57A55",
"g. c #D37054",
"h. c #CB7967",
"j. c #DE7C65",
"k. c #48840E",
"l. c #4A8712",
"z. c #539612",
"x. c #AF8D3F",
"c. c #D49128",
"v. c #CF873F",
"b. c #E58335",
"n. c #E6823A",
"m. c #E09733",
"M. c #CBA33D",
"N. c #DBA33C",
"B. c #F3A12C",
"V. c #FCB92D",
"C. c #E6AD3E",
"Z. c #F6BE32",
"A. c #FABC36",
"S. c #FCC22F",
"D. c #FBC233",
"F. c #AC8F46",
"G. c #B28B44",
"H. c #AA8670",
"J. c #D09041",
"K. c #C39A52",
"L. c #CCA64E",
"P. c #D0A54B",
"I. c #D3AF59",
"U. c #E9B747",
"Y. c #E7B845",
"T. c #EFAD5E",
"R. c #E9A468",
"E. c #EDAB7D",
"W. c #838181",
"Q. c #919E88",
"!. c #A89688",
"~. c #9FA092",
"^. c #BFAB98",
"/. c #C39E83",
"(. c #E69A83",
"). c #DDAB8A",
"_. c #DAAF93",
"`. c #E6AF8D",
"'. c #E4B086",
"]. c #D1C8BB",
"[. c #F3C8A9",
"{. c #F4D2B3",
"}. c #F3DABD",
"|. c #D1CEC9",
/* pixels */
"S A 3 q A 3 N N H C R Z N B ; M q B A M B N B ! } [ E E N q V L ",
"n - ; q q q S Y Z ` B B N N n _ ` ) Z V B B B ! } ~ C C B S F A ",
"n < 3 ; = 9 < q q n A N S n M N ` ` B B R V B / } Q E n N N M ( ",
"L B V V w 0 9 3 ; > < ; n n F Z B ~ V M N n M / C } Q 3 M Y l.| ",
") / E Z H S S B - * < < q A A E B ~ L L 1 A N V I z./ N F Y l.] ",
"L Y / ' ' L q B 9 A n A , = , ; ; 3 1 L 1 1 n N Z k.m ) / R E ` ",
"3 H P I L N n B N _ F G 7 7 8 8 7 8 8 K 1 - 1 N B C m C F B B m ",
"n B N m M ; A B ( ! S k J.m.C.U.Y.U.I. .e F , n N B W Z N M m m ",
"n V M n n ; B B B ;  .v.B.V.V.D.S.S.D.P. .A F m n n W M M N n m ",
"N B - n M M M ; - . d t.e.r.r.r.r.r.t.y.f . < ; - ; M n n M n n ",
"B n - n B M ; , o.0.w.b.n.n.n.y.n.b.b.b.w.+.o.* = ; n n n n n M ",
"n M M V R D D  .P.A.N.G.G.G.G.x.F.F.x.F.N.D.M. .e ; m - n ; n M ",
"V M B B W M 4 L.Z.c.X.% % O O 7 7 O % 8 8.c.V.L.& , 2 > - ; ; n ",
"V B N B Y n 4 K.m.X.X @ @ @ # :.p.@ 6 d.c X.m.K.4 w 5 3 = - ; ; ",
"N M M n n n F j q.b   @ @ # 2.,.& i W.z X b q.k K { Z ] ; ; M M ",
"N M N n n n M A j &   @ & s.].3.l !.|.z   & j 9 S } [ ~ M - M R ",
"V n ; M n ; n m > $ # . & /.}.^.H.{.}.d.p o < M D ] Q ~ / q q V ",
"V ; , N B n n S 9 2 5 X s p./._.`.'.).H.l - M n Z ! ~ ` ( < q B ",
"m ; , - n - q H G q 5 d 5.d u.f.K.f.a.h 4 3 N 3 C ! k.` / F A N ",
"Y 3 m A - = 9 K r : g 7.7.6.7.j.E.R.E.i.s 5 Z Z I ) Y R } I Y R ",
"Y G H ) A 0 w U J + c (.h.v 4.g.T.T.R.9.i.x n [ ` ` L B ' I ) ) ",
"C N ) | | 0 0 J H $ ;.[._.p u ;.<.<.:.h a.>.* ) ' L w L T I Y I ",
"B N F ) } I < w ; - ..d.s.$.&.%.t @.%.t c ..< B R L q 3 B N F m ",
"C Z N F ' ] 1 N ; M ~ $ . 1.=.#.y y 1.y . w N B V ' - n Z F A I ",
"Z B M S C [ M B B n [ D : Q.-.$.*.i ~.a < B ! Z Q F 1 B B / R W ",
"B N S J G N m N W N C B Y O./ N I I O.Y S Z Q E Y < 1 F V E ! L ",
"N m m C w 0 3 - B Y Z Z I S D R Y F V ] A S I F A A 1 Y ' Y F A ",
"F A n N G G H 9 n m N V V B D I P n F ] q N N L A A 1 1 D F A S ",
"3 2 n Z J J U 5 2 3 3 n n n q M M 1 L Y 1 I Z B B Z m < q B F F ",
"= 2 B Q U J J w N N H w 9 < 1 n 1 A Y M < ; N A B q < Y - M S < ",
"C S B V C w S H Z H T U n n B B 1 n R M = M n B D F q ] F n R A ",
"E 3 M N M 3 N N C T U C B V V A m A V 3 - n C ~ } ` B ] L B Y ) "
};
