/* XPM */
static char *wall1736962469[] = {
/* columns rows colors chars-per-pixel */
"32 32 68 1 ",
"  c #52453D",
". c #56493F",
"X c #4F4742",
"o c #4F4842",
"O c #554C44",
"+ c #5A4E45",
"@ c #574E49",
"# c #5B4F48",
"$ c #5D5147",
"% c #57504B",
"& c #5C534C",
"* c #5E5751",
"= c #5F5853",
"- c #615147",
"; c #62564C",
": c #69574C",
"> c #63594F",
", c #6D5A4E",
"< c #705D4E",
"1 c #605750",
"2 c #645B53",
"3 c #695E54",
"4 c #675F58",
"5 c #685F59",
"6 c #676057",
"7 c #6B6057",
"8 c #67605B",
"9 c #6B635C",
"0 c #71675E",
"q c #79665A",
"w c #73685E",
"e c #6D6660",
"r c #6F6862",
"t c #706760",
"y c #746B64",
"u c #796E65",
"i c #766F68",
"p c #786F68",
"a c #7A7067",
"s c #77706A",
"d c #7C736B",
"f c #7E7770",
"g c #7F7871",
"h c #826E61",
"j c #877162",
"k c #81766D",
"l c #887569",
"z c #83786F",
"x c #847B73",
"c c #887E75",
"v c #897F78",
"b c #8A8077",
"n c #8C837B",
"m c #91877D",
"M c #92887F",
"N c #8F8780",
"B c #908780",
"V c #948B83",
"C c #998F86",
"Z c #999087",
"A c #9C948B",
"S c #A0978E",
"D c #A1988F",
"F c #A49B92",
"G c #A89E94",
"H c #AAA096",
"J c #ADA39A",
"K c #B1A69D",
/* pixels */
"SFA8VFCdNDArrgf8>bFC&bAVZFA9nGNi",
"VVx*NSnenAN4es92=yNg$ymVbmn7nNAa",
"de2O2t8%=96O%=o@O%2=$&66=&&&6;w9",
"xt2Vmk&199992 9fzbd6bbwb7.wnc69b",
"FCtASS9vNnVNM>nVZFCiAFFAh<VJM&mD",
"CViACV7dMACbC6yCAAb=mZACq<xHS7yV",
"42&zvn24fxy18&&yyi6O=6di3-1a9&;2",
"pau2%7au93$dVVn2uimz2fbbz+kVxbx&",
"FFSziVVmdauZZAA&imVC3yVFC@zGAFV7",
"AFAixFAMdVybAAxo4nVA0O;0y.qDVAn2",
"2e4%9xaayd&riy2 &die;;&O@O2pydi$",
"yz2dCnda; 39a6OxCAb;kMdBNx&-:.&d",
"GFynGFnDV6MVFA9nGFVyAGAAFA:qj,3A",
"AV2vDDVMAwAMAAibFFniVZVVDM-hq:9A",
"92O2ddy89&i9sf29xg11ie40i9+,+.&a",
"3O;20ka29w6+&aa9O0270>Oawbk0v6ak",
"M:lZVVFaxbz6MAAn*vvSGV1AGGnbFVAF",
"b;lFFAFiuVVyfVAnO#aZbx6AFAxdnACC",
"1&xbbxd&Oai$2df=.$22$%@9y9170yi6",
"mz229s1pza&kCVf6uayy;0ikg1bAZy3n",
"KHuxAZAFFF9vGFndCmVnyVnSFymFGaxK",
"Dx$nFSVAAN*gDDnrZVVV8VSSC&zmn5:z",
"y&.0na8sd2X6ddr%xn99%yxi5O2&&&..",
"kzi+yyre@%da9dy&+7w9&6Otp9&MCmxw",
"DAAyaxgn0=fyyAV=1bng2y%xV97GFSCy",
"FAVyxxeV0*d6eAN6tnVx4r&nVy1VAVne",
"iay&e8%e&=fe%if92re2o@#9it*xxx4@",
"+.;a97iO66=946%%e7%+9kxdut1bBCx&",
"q+xGVAC&fb*xbx%gVAx9VAADSAuAFFA3",
"-%MFFDV&id%ysr@sVAx%dVxVSCyASSm:",
" O7adi9+22@&=*O4ys4O&y42ye>adby ",
"quv277u3ixd$&sdy&7bV>1xvVBx&45.:"
};
